<svg width="24" height="24" viewBox="0 0 24 24" fill="none" xmlns="http://www.w3.org/2000/svg">
<path d="M11.25 13.5C12.0456 13.5 12.8087 13.8161 13.3713 14.3787C13.9339 14.9413 14.25 15.7044 14.25 16.5C14.25 17.9475 13.362 19.095 12.1335 19.845C10.905 20.592 9.2625 21 7.5 21C5.7375 21 4.095 20.592 2.8665 19.845C1.6365 19.095 0.75 17.9475 0.75 16.5C0.75 15.7044 1.06607 14.9413 1.62868 14.3787C2.19129 13.8161 2.95435 13.5 3.75 13.5H11.25ZM3.75 15C3.35218 15 2.97064 15.158 2.68934 15.4393C2.40804 15.7206 2.25 16.1022 2.25 16.5C2.25 17.262 2.706 17.988 3.648 18.5625C4.59 19.137 5.949 19.5 7.5 19.5C9.051 19.5 10.41 19.137 11.352 18.5625C12.294 17.988 12.75 17.262 12.75 16.5C12.75 16.1022 12.592 15.7206 12.3107 15.4393C12.0294 15.158 11.6478 15 11.25 15H3.75ZM21.228 13.512C21.7823 13.5685 22.296 13.8286 22.6695 14.242C23.0431 14.6555 23.2499 15.1928 23.25 15.75C23.25 16.9065 22.545 17.8635 21.5985 18.495C20.6445 19.131 19.3695 19.5 18 19.5C16.9515 19.5 15.96 19.281 15.1245 18.8955C15.3645 18.465 15.5445 17.994 15.6495 17.481C16.284 17.796 17.0955 18 18 18C19.1145 18 20.091 17.697 20.766 17.247C21.4455 16.794 21.75 16.2495 21.75 15.75C21.75 15.5771 21.6903 15.4095 21.581 15.2756C21.4717 15.1416 21.3194 15.0496 21.15 15.015L21 15H15.489C15.2976 14.4601 15.0049 13.9616 14.6265 13.5315C14.7494 13.5107 14.8738 13.5002 14.9985 13.5H20.9985L21.228 13.512ZM18.348 5.262C19.1799 5.34774 19.9504 5.73888 20.5106 6.35977C21.0708 6.98067 21.381 7.78722 21.381 8.6235L21.363 8.9685C21.2769 9.79984 20.8859 10.5698 20.2653 11.1297C19.6448 11.6896 18.8388 11.9996 18.003 12L17.658 11.982C16.8852 11.9032 16.1633 11.5602 15.6141 11.0109C15.0648 10.4617 14.7218 9.73975 14.643 8.967L14.625 8.622C14.6246 8.17828 14.7117 7.73884 14.8813 7.32883C15.051 6.91881 15.2998 6.54627 15.6135 6.23251C15.9273 5.91876 16.2998 5.66995 16.7098 5.50033C17.1198 5.33071 17.5593 5.24361 18.003 5.244L18.348 5.262ZM7.5 3.75C8.59402 3.75 9.64323 4.1846 10.4168 4.95818C11.1904 5.73177 11.625 6.78098 11.625 7.875C11.625 8.96902 11.1904 10.0182 10.4168 10.7918C9.64323 11.5654 8.59402 12 7.5 12C6.40598 12 5.35677 11.5654 4.58318 10.7918C3.8096 10.0182 3.375 8.96902 3.375 7.875C3.375 6.78098 3.8096 5.73177 4.58318 4.95818C5.35677 4.1846 6.40598 3.75 7.5 3.75ZM18.003 6.7455C17.5049 6.7455 17.0272 6.94336 16.6751 7.29555C16.3229 7.64775 16.125 8.12542 16.125 8.6235C16.125 9.12158 16.3229 9.59925 16.6751 9.95145C17.0272 10.3036 17.5049 10.5015 18.003 10.5015C18.5011 10.5015 18.9788 10.3036 19.3309 9.95145C19.6831 9.59925 19.881 9.12158 19.881 8.6235C19.881 8.12542 19.6831 7.64775 19.3309 7.29555C18.9788 6.94336 18.5011 6.7455 18.003 6.7455ZM7.5 5.25C6.80381 5.25 6.13613 5.52656 5.64384 6.01884C5.15156 6.51113 4.875 7.17881 4.875 7.875C4.875 8.57119 5.15156 9.23887 5.64384 9.73116C6.13613 10.2234 6.80381 10.5 7.5 10.5C8.19619 10.5 8.86387 10.2234 9.35616 9.73116C9.84844 9.23887 10.125 8.57119 10.125 7.875C10.125 7.17881 9.84844 6.51113 9.35616 6.01884C8.86387 5.52656 8.19619 5.25 7.5 5.25Z" fill="#F6F6F6"/>
</svg>
