<svg width="24" height="24" viewBox="0 0 24 24" fill="none" xmlns="http://www.w3.org/2000/svg">
<g clip-path="url(#clip0_2023_524)">
<path fill-rule="evenodd" clip-rule="evenodd" d="M21.75 9C21.7504 8.93027 21.7409 8.86083 21.7219 8.79375L20.3766 4.0875C20.1909 3.44617 19.6052 3.00357 18.9375 3H5.0625C4.39483 3.00357 3.80915 3.44617 3.62344 4.0875L2.27906 8.79375C2.2597 8.86078 2.24991 8.93022 2.25 9V10.5C2.25 11.6803 2.80573 12.7918 3.75 13.5V19.5C3.75 20.3284 4.42157 21 5.25 21H18.75C19.5784 21 20.25 20.3284 20.25 19.5V13.5C21.1943 12.7918 21.75 11.6803 21.75 10.5V9ZM5.0625 4.5H18.9375L20.0081 8.25H3.99469L5.0625 4.5ZM9.75 9.75H14.25V10.5C14.25 11.7426 13.2426 12.75 12 12.75C10.7574 12.75 9.75 11.7426 9.75 10.5V9.75ZM8.25 9.75V10.5C8.25 11.7426 7.24264 12.75 6 12.75C4.75736 12.75 3.75 11.7426 3.75 10.5V9.75H8.25ZM18.75 19.5H5.25V14.175C5.4969 14.2248 5.74813 14.2499 6 14.25C7.18034 14.25 8.2918 13.6943 9 12.75C9.7082 13.6943 10.8197 14.25 12 14.25C13.1803 14.25 14.2918 13.6943 15 12.75C15.7082 13.6943 16.8197 14.25 18 14.25C18.2519 14.2499 18.5031 14.2248 18.75 14.175V19.5ZM18 12.75C16.7574 12.75 15.75 11.7426 15.75 10.5V9.75H20.25V10.5C20.25 11.7426 19.2426 12.75 18 12.75Z" fill="#F6F6F6"/>
</g>
<defs>
<clipPath id="clip0_2023_524">
<rect width="24" height="24" fill="white"/>
</clipPath>
</defs>
</svg>
